<svg width="1000" height="871.373" viewBox="0.023 -0.342 1000 871.373" overflow="visible" xml:space="preserve" xmlns="http://www.w3.org/2000/svg"><defs><linearGradient id="j"><stop offset=".034" style="stop-color:#0f0;stop-opacity:1"/><stop offset="1" style="stop-color:#009700;stop-opacity:1"/></linearGradient><linearGradient id="g"><stop offset="0" style="stop-color:#9e9e9e;stop-opacity:1"/><stop offset="1" style="stop-color:#616161;stop-opacity:1"/></linearGradient><linearGradient id="h"><stop offset="0" style="stop-color:#9e9e9e;stop-opacity:1"/><stop offset="1" style="stop-color:#616161;stop-opacity:1"/></linearGradient><linearGradient id="f"><stop offset=".034" style="stop-color:#fff;stop-opacity:1"/><stop offset="1" style="stop-color:#878787;stop-opacity:1"/></linearGradient><linearGradient id="e"><stop offset=".034" style="stop-color:#fff;stop-opacity:1"/><stop offset="1" style="stop-color:#b2b2b2;stop-opacity:1"/></linearGradient><linearGradient id="b"><stop offset="0" style="stop-color:#fff;stop-opacity:1"/><stop offset="1" style="stop-color:#cfcfcf;stop-opacity:1"/></linearGradient><linearGradient id="a"><stop offset="0" style="stop-color:#fff;stop-opacity:1"/><stop offset="1" style="stop-color:#fff;stop-opacity:0"/></linearGradient><linearGradient id="d"><stop offset=".034" style="stop-color:#fff;stop-opacity:1"/><stop offset="1" style="stop-color:#b2b2b2;stop-opacity:1"/></linearGradient><linearGradient id="c"><stop offset="0" style="stop-color:#9e9e9e;stop-opacity:1"/><stop offset="1" style="stop-color:#616161;stop-opacity:1"/></linearGradient><linearGradient id="i"><stop offset="0" style="stop-color:#ccc;stop-opacity:1"/><stop offset="1" style="stop-color:#616161;stop-opacity:1"/></linearGradient></defs><path d="M79.699 97.93v1.223l2.667.749c.025.007.043.03.043.056v.428a.058.058 0 0 1-.058.058H75.3a.058.058 0 0 1-.058-.058v-.428c0-.026.017-.05.042-.056l2.668-.749v-1.222zm-7.716-.867V87.93a.26.26 0 0 1 .259-.259h13.167a.26.26 0 0 1 .259.26v9.132a.259.259 0 0 1-.26.26H72.243a.259.259 0 0 1-.26-.26zm.805-.546h12.074v-8.04H72.789Zm17.325-9.874v12.67a1.131 1.131 0 0 1-1.132 1.131H84.97a1.132 1.132 0 0 1-1.132-1.131v-1.185h1.57a1.066 1.066 0 0 0 1.066-1.065V87.93a1.065 1.065 0 0 0-1.065-1.064h-1.57v-.223a1.132 1.132 0 0 1 1.13-1.132h4.012a1.132 1.132 0 0 1 1.132 1.132zm-.997 8.868a.823.823 0 1 0-1.645 0 .823.823 0 0 0 1.645 0zm0-2.52a.823.823 0 1 0-1.646 0 .823.823 0 0 0 1.646 0zM22.154 66.11v1.224l2.667.748c.025.007.043.03.043.056v.428a.058.058 0 0 1-.059.058h-7.05a.058.058 0 0 1-.059-.058v-.428c0-.026.018-.049.043-.056l2.668-.748V66.11zm-7.717-.867v-9.132a.26.26 0 0 1 .26-.26h13.167a.26.26 0 0 1 .259.26v9.132a.259.259 0 0 1-.26.26H14.697a.259.259 0 0 1-.259-.26zm.806-.546h12.074v-8.04H15.244zm17.325-9.874v12.67a1.131 1.131 0 0 1-1.132 1.131h-4.011a1.132 1.132 0 0 1-1.132-1.131v-1.185h1.57a1.066 1.066 0 0 0 1.065-1.065v-9.132a1.065 1.065 0 0 0-1.064-1.065h-1.571v-.223a1.132 1.132 0 0 1 1.132-1.131h4.011a1.132 1.132 0 0 1 1.132 1.131zm-.997 8.868a.823.823 0 1 0-1.645 0 .823.823 0 0 0 1.645 0zm0-2.52a.823.823 0 1 0-1.646 0 .823.823 0 0 0 1.646 0zM36.65 97.93v1.223l2.667.749c.025.007.042.03.042.056v.428a.058.058 0 0 1-.058.058h-7.05a.058.058 0 0 1-.059-.058v-.428c0-.026.018-.05.043-.056l2.667-.749v-1.222zm-7.717-.867V87.93a.26.26 0 0 1 .26-.259h13.166a.26.26 0 0 1 .26.26v9.132a.259.259 0 0 1-.26.26H29.192a.259.259 0 0 1-.259-.26zm.806-.546h12.073v-8.04H29.74zm17.324-9.874v12.67a1.131 1.131 0 0 1-1.131 1.131H41.92a1.132 1.132 0 0 1-1.131-1.131v-1.185h1.57a1.066 1.066 0 0 0 1.065-1.065V87.93a1.065 1.065 0 0 0-1.065-1.064h-1.57v-.223a1.132 1.132 0 0 1 1.131-1.132h4.012a1.132 1.132 0 0 1 1.131 1.132zm-.996 8.868a.823.823 0 1 0-1.646 0 .823.823 0 0 0 1.646 0zm0-2.52a.823.823 0 1 0-1.646 0 .823.823 0 0 0 1.646 0zM94.194 66.11v1.224l2.668.748c.025.007.042.03.042.056v.428a.058.058 0 0 1-.058.058h-7.05a.058.058 0 0 1-.059-.058v-.428c0-.026.018-.049.043-.056l2.667-.748V66.11zm-7.716-.867v-9.132a.26.26 0 0 1 .26-.26h13.166a.26.26 0 0 1 .26.26v9.132a.259.259 0 0 1-.26.26H86.737a.259.259 0 0 1-.259-.26zm.806-.546h12.074v-8.04H87.284zm17.325-9.874v12.67a1.131 1.131 0 0 1-1.132 1.131h-4.012a1.132 1.132 0 0 1-1.131-1.131v-1.185h1.57a1.066 1.066 0 0 0 1.065-1.065v-9.132a1.065 1.065 0 0 0-1.065-1.065h-1.57v-.223a1.132 1.132 0 0 1 1.131-1.131h4.012a1.132 1.132 0 0 1 1.132 1.131zm-.997 8.868a.823.823 0 1 0-1.645 0 .823.823 0 0 0 1.645 0zm0-2.52a.823.823 0 1 0-1.646 0 .823.823 0 0 0 1.646 0zM36.65 34.29v1.224l2.667.748c.025.007.042.03.042.056v.429a.058.058 0 0 1-.058.058h-7.05a.058.058 0 0 1-.059-.058v-.429c0-.026.018-.049.043-.056l2.667-.748V34.29zm-7.717-.866V24.29a.26.26 0 0 1 .26-.26h13.166a.26.26 0 0 1 .26.26v9.133a.259.259 0 0 1-.26.259H29.192a.259.259 0 0 1-.259-.26zm.806-.547h12.073v-8.04H29.74zm17.324-9.874v12.67a1.131 1.131 0 0 1-1.131 1.132H41.92a1.132 1.132 0 0 1-1.131-1.132v-1.185h1.57a1.066 1.066 0 0 0 1.065-1.064V24.29a1.065 1.065 0 0 0-1.065-1.065h-1.57v-.223a1.132 1.132 0 0 1 1.131-1.131h4.012a1.132 1.132 0 0 1 1.131 1.131zm-.996 8.868a.823.823 0 1 0-1.646 0 .823.823 0 0 0 1.646 0zm0-2.52a.823.823 0 1 0-1.646 0 .823.823 0 0 0 1.646 0zM79.699 34.29v1.224l2.667.748c.025.007.043.03.043.056v.429a.058.058 0 0 1-.058.058H75.3a.058.058 0 0 1-.058-.058v-.429c0-.026.017-.049.042-.056l2.668-.748V34.29zm-7.716-.866V24.29a.26.26 0 0 1 .259-.26h13.167a.26.26 0 0 1 .259.26v9.133a.259.259 0 0 1-.26.259H72.243a.259.259 0 0 1-.26-.26zm.805-.547h12.074v-8.04H72.789zm17.325-9.874v12.67a1.131 1.131 0 0 1-1.132 1.132H84.97a1.132 1.132 0 0 1-1.132-1.132v-1.185h1.57a1.066 1.066 0 0 0 1.066-1.064V24.29a1.065 1.065 0 0 0-1.065-1.065h-1.57v-.223a1.132 1.132 0 0 1 1.13-1.131h4.012a1.132 1.132 0 0 1 1.132 1.131zm-.997 8.868a.823.823 0 1 0-1.645 0 .823.823 0 0 0 1.645 0zm0-2.52a.823.823 0 1 0-1.646 0 .823.823 0 0 0 1.646 0z" style="fill:#000;stroke-width:.0359728" transform="matrix(11.09003 0 0 11.09003 -160.09 -242.9)"/><path style="fill:#000;fill-rule:evenodd;stroke:#000;stroke-width:.971136px;stroke-linecap:butt;stroke-linejoin:miter;stroke-opacity:1" d="m94.7 72.394-9.21 9.775M85.49 40.147l9.21 9.775M22.484 49.922l9.21-9.775M31.695 82.17l-9.21-9.776M42.365 81.755 74.82 40.561M38.796 80.708v-39.1" transform="matrix(11.09003 0 0 11.09003 -160.09 -242.9)"/><g style="fill:#000"><path d="m47.247 84.506 39.315-16.749M74.097 84.506 34.782 67.757" style="fill:#000;fill-rule:evenodd;stroke:#000;stroke-width:1px;stroke-linecap:butt;stroke-linejoin:miter;stroke-opacity:1" transform="matrix(10.45435 0 0 11.09504 -144.582 -246.785)"/></g><path style="fill:#000;fill-rule:evenodd;stroke:#000;stroke-width:1px;stroke-linecap:butt;stroke-linejoin:miter;stroke-opacity:1" d="M49.055 28.908H69.99M49.055 92.908H69.99" transform="matrix(11.09003 0 0 11.09003 -160.09 -242.9)"/></svg>